# xmcd CD database file
#
# Track frame offsets:
#	150
#	19137
#	38415
#	51783
#	67057
#	78767
#	92628
#	104765
#	121797
#	137813
#	150936
#	171066
#	186003
#
# Disc length: 2705 seconds
#
# Revision: 0
# Processed by: cddbd v1.5.2PL0 Copyright (c) Steve Scherf et al.
# Submitted via: CDex 1.51
#
DISCID=9c0a8f0d
DTITLE=Johanna Hemara - Goodnight Sweetheart
DYEAR=1900
DGENRE=Country
TTITLE0=Johanna Hemara - The Best Of Me
TTITLE1=Johanna Hemara - Girls Were Meant To Be Hurt
TTITLE2=Johanna Hemara - Mountain Yodel
TTITLE3=Johanna Hemara - Goodnight Sweetheart
TTITLE4=Johanna Hemara - You Only Want Me When You're Lonely
TTITLE5=Johanna Hemara - Including You
TTITLE6=Johanna Hemara - Jo's Yodel
TTITLE7=Johanna Hemara - Daddy
TTITLE8=Johanna Hemara - In Between
TTITLE9=Johanna Hemara - I Was Born To Yodel
TTITLE10=Johanna Hemara - Blue Memories
TTITLE11=Johanna Hemara - Please Don't Look At Me That Way
TTITLE12=Johanna Hemara - That's How The Yodel Was Born
EXTD=
EXTT0=
EXTT1=
EXTT2=
EXTT3=
EXTT4=
EXTT5=
EXTT6=
EXTT7=
EXTT8=
EXTT9=
EXTT10=
EXTT11=
EXTT12=
PLAYORDER=
